Genre:Horror | Mystery | Thriller
Language:English
IMDb:http://www.imdb.com/title/tt1314655/
Source:Magnet-Thanks
Sample:Yes

General
Complete name :Devil.2010.Cam.V2.XviD.Feel-Free
Format : AVI
Format/Info : Audio Video Interleave
File size : 704 MiB
Duration : 1h 14mn
Overall bit rate : 1 324 Kbps
Video #0
Muxing mode : Packed bitstream
Codec ID : XVID
Codec ID/Hint : XviD
Duration : 1h 14mn
Bit rate : 1 183 Kbps
Width : 652 pixels
Height : 352 pixels
Display aspect ratio : 1.852
Frame rate : 25.000 fps
Resolution : 24 bits
Colorimetry : 4:2:0
Scan type : Progressive
Bits/(Pixel*Frame) : 0.206
Stream size : 629 MiB (89%)
Writing library : XviD 1.2.1 (UTC 2008-12-04)
Audio #1
ID : 1
Format : MPEG Audio
Format version : Version 1
Format profile : Layer 3
Codec ID : 55
Codec ID/Hint : MP3
Duration : 1h 14mn
Bit rate mode : Constant
Bit rate : 128 Kbps
Channel(s) : 2 channels
Sampling rate : 48.0 KHz
Resolution : 16 bits
Stream size : 68.1 MiB (10%)
Alignment : Aligned on interleaves
Interleave, duration : 24 ms (0.60 video frame)
Interleave, preload duration : 504 ms

Plot
A group of people trapped in an elevator realize that the devil is among them